<svg width="40" height="29" viewBox="0 0 40 29" fill="none" xmlns="http://www.w3.org/2000/svg">
<path d="M37.9273 15.4062C36.6141 13.8609 34.7491 12.8858 32.7273 12.6875C32.7273 9.15312 31.4909 6.1625 29.0182 3.6975C26.5455 1.2325 23.5455 0 20 0C17.1273 0 14.5455 0.851875 12.2727 2.59187C10 4.33187 8.49091 6.56125 7.72727 9.33437C5.45455 9.84187 3.56364 11.02 2.12727 12.8688C0.690909 14.7175 0 16.82 0 19.1762C0 21.9131 0.981818 24.2513 2.92727 26.1544C4.89091 28.0938 7.27273 29 10 29H31.8182C34.0909 29 36.0182 28.2025 37.6182 26.6256C39.2 25.0306 40 23.1094 40 20.8438C40 18.7594 39.3091 16.9469 37.9273 15.4062ZM35.0364 24.0519C34.1636 24.94 33.0909 25.375 31.8182 25.375H10C8.23636 25.375 6.74546 24.7588 5.50909 23.5625C4.25455 22.2756 3.63636 20.7894 3.63636 19.0312C3.63636 17.2731 4.25455 15.7869 5.50909 14.5544C6.74546 13.3037 8.23636 12.6875 10 12.6875H10.9091C10.9091 10.1863 11.8182 8.0475 13.5636 6.27125C15.3455 4.53125 17.4909 3.625 20 3.625C22.5091 3.625 24.6545 4.53125 26.4364 6.27125C28.1818 8.0475 29.0909 10.1863 29.0909 12.6875V16.3125H31.8182C33.0909 16.3125 34.1636 16.7475 35.0364 17.6356C35.9091 18.5237 36.3636 19.575 36.3636 20.8438C36.3636 22.1125 35.9273 23.1819 35.0364 24.0519ZM12.7818 11.6906C12.7818 10.2769 13.9455 9.11687 15.3636 9.11687C16.7818 9.11687 17.9455 10.2769 17.9455 11.6906C17.9455 13.1044 16.7818 14.2644 15.3636 14.2644C13.9455 14.2644 12.7818 13.1044 12.7818 11.6906ZM27.2182 20.9344C27.2182 22.3481 26.0545 23.5081 24.6364 23.5081C23.2182 23.5081 22.0545 22.3481 22.0545 20.9344C22.0545 19.5206 23.2182 18.3606 24.6364 18.3606C26.0545 18.3606 27.2182 19.5206 27.2182 20.9344ZM25.0909 9.0625L27.2727 11.2375L14.9091 23.5625L12.7273 21.3875L25.0909 9.0625Z" fill="white"/>
</svg>
