<svg width="40" height="27" viewBox="0 0 40 27" fill="none" xmlns="http://www.w3.org/2000/svg">
<path d="M20 8.1C18.5534 8.1 17.166 8.66893 16.1431 9.68162C15.1201 10.6943 14.5455 12.0678 14.5455 13.5C14.5455 14.9322 15.1201 16.3057 16.1431 17.3184C17.166 18.3311 18.5534 18.9 20 18.9C21.4466 18.9 22.834 18.3311 23.8569 17.3184C24.8799 16.3057 25.4545 14.9322 25.4545 13.5C25.4545 12.0678 24.8799 10.6943 23.8569 9.68162C22.834 8.66893 21.4466 8.1 20 8.1ZM20 22.5C17.5889 22.5 15.2766 21.5518 13.5718 19.864C11.8669 18.1761 10.9091 15.8869 10.9091 13.5C10.9091 11.1131 11.8669 8.82387 13.5718 7.13604C15.2766 5.44821 17.5889 4.5 20 4.5C22.4111 4.5 24.7234 5.44821 26.4282 7.13604C28.1331 8.82387 29.0909 11.1131 29.0909 13.5C29.0909 15.8869 28.1331 18.1761 26.4282 19.864C24.7234 21.5518 22.4111 22.5 20 22.5ZM20 0C10.9091 0 3.14545 5.598 0 13.5C3.14545 21.402 10.9091 27 20 27C29.0909 27 36.8545 21.402 40 13.5C36.8545 5.598 29.0909 0 20 0Z" fill="white"/>
</svg>
