<svg width="32" height="32" viewBox="0 0 32 32" fill="none" xmlns="http://www.w3.org/2000/svg">
<g clip-path="url(#clip0_324_6)">
<circle cx="16" cy="16" r="16" fill="#71A7EE"/>
<path d="M18.1541 6.69318H21.4212V19.4773C21.4152 20.6491 21.1667 21.6583 20.6754 22.5046C20.1842 23.3451 19.4976 23.9931 18.6158 24.4489C17.7398 24.8987 16.7189 25.1236 15.5529 25.1236C14.4876 25.1236 13.5288 24.9342 12.6765 24.5554C11.8301 24.1707 11.1584 23.6025 10.6612 22.8509C10.1641 22.0992 9.91548 21.1641 9.91548 20.0455H13.1914C13.1973 20.5367 13.3039 20.9599 13.511 21.315C13.7241 21.6701 14.017 21.9424 14.3899 22.1317C14.7628 22.3211 15.1919 22.4158 15.6772 22.4158C16.204 22.4158 16.6508 22.3063 17.0178 22.0874C17.3847 21.8625 17.6629 21.531 17.8523 21.093C18.0476 20.6551 18.1482 20.1165 18.1541 19.4773V6.69318Z" fill="white"/>
</g>
<defs>
<clipPath id="clip0_324_6">
<rect width="32" height="32" fill="white"/>
</clipPath>
</defs>
</svg>
