<svg width="198" height="21" viewBox="0 0 198 21" fill="none" xmlns="http://www.w3.org/2000/svg">
<path d="M3.05347 20H0.662198L7.57848 1.16416H9.93296L16.8492 20H14.458L8.8293 4.14405H8.68215L3.05347 20ZM3.9364 12.6422H13.575V14.6656H3.9364V12.6422ZM18.7462 1.16416V2.81965C18.7462 3.32243 18.6542 3.85893 18.4703 4.42916C18.2924 4.99326 18.0288 5.54202 17.6793 6.07546C17.3359 6.60276 16.919 7.06262 16.4285 7.45504L15.2512 6.49853C15.6375 5.9467 15.9717 5.37341 16.2537 4.77865C16.5419 4.17777 16.686 3.53703 16.686 2.85644V1.16416H18.7462ZM21.9077 20V1.16416H28.4929C29.805 1.16416 30.8872 1.39102 31.7395 1.84475C32.5918 2.29235 33.2264 2.8963 33.6433 3.6566C34.0603 4.41077 34.2687 5.24771 34.2687 6.16743C34.2687 6.97678 34.1246 7.64511 33.8365 8.17242C33.5544 8.69972 33.1804 9.11666 32.7144 9.42323C32.2545 9.72981 31.7548 9.95667 31.2153 10.1038V10.2878C31.7916 10.3246 32.371 10.5269 32.9535 10.8948C33.536 11.2627 34.0235 11.79 34.4159 12.4767C34.8083 13.1634 35.0045 14.0034 35.0045 14.9967C35.0045 15.941 34.7899 16.7902 34.3607 17.5444C33.9315 18.2985 33.254 18.8963 32.3281 19.3378C31.4023 19.7793 30.1974 20 28.7136 20H21.9077ZM24.1886 17.9766H28.7136C30.2036 17.9766 31.2612 17.6884 31.8867 17.1121C32.5182 16.5296 32.834 15.8245 32.834 14.9967C32.834 14.3591 32.6715 13.7704 32.3465 13.2309C32.0215 12.6852 31.5586 12.2498 30.9577 11.9249C30.3569 11.5938 29.6456 11.4282 28.824 11.4282H24.1886V17.9766ZM24.1886 9.44163H28.4193C29.106 9.44163 29.7253 9.30674 30.2771 9.03695C30.8351 8.76717 31.2766 8.38702 31.6015 7.8965C31.9326 7.40598 32.0982 6.82963 32.0982 6.16743C32.0982 5.33968 31.81 4.63763 31.2337 4.06127C30.6573 3.47878 29.7437 3.18754 28.4929 3.18754H24.1886V9.44163ZM54.6451 10.5821C54.6451 12.5687 54.2864 14.2855 53.569 15.7325C52.8516 17.1795 51.8675 18.2955 50.6167 19.0803C49.3659 19.8651 47.9373 20.2575 46.3308 20.2575C44.7244 20.2575 43.2958 19.8651 42.0449 19.0803C40.7941 18.2955 39.81 17.1795 39.0926 15.7325C38.3753 14.2855 38.0166 12.5687 38.0166 10.5821C38.0166 8.59549 38.3753 6.87868 39.0926 5.43165C39.81 3.98463 40.7941 2.86871 42.0449 2.08388C43.2958 1.29905 44.7244 0.906638 46.3308 0.906638C47.9373 0.906638 49.3659 1.29905 50.6167 2.08388C51.8675 2.86871 52.8516 3.98463 53.569 5.43165C54.2864 6.87868 54.6451 8.59549 54.6451 10.5821ZM52.4378 10.5821C52.4378 8.95111 52.1649 7.5746 51.6192 6.45254C51.0796 5.33049 50.3469 4.48128 49.4211 3.90492C48.5014 3.32856 47.4713 3.04039 46.3308 3.04039C45.1904 3.04039 44.1572 3.32856 43.2314 3.90492C42.3117 4.48128 41.579 5.33049 41.0333 6.45254C40.4937 7.5746 40.2239 8.95111 40.2239 10.5821C40.2239 12.213 40.4937 13.5896 41.0333 14.7116C41.579 15.8337 42.3117 16.6829 43.2314 17.2592C44.1572 17.8356 45.1904 18.1238 46.3308 18.1238C47.4713 18.1238 48.5014 17.8356 49.4211 17.2592C50.3469 16.6829 51.0796 15.8337 51.6192 14.7116C52.1649 13.5896 52.4378 12.213 52.4378 10.5821ZM70.8413 1.16416H73.1222V13.6355C73.1222 14.9232 72.8187 16.0728 72.2117 17.0845C71.6108 18.0901 70.7616 18.8841 69.6641 19.4666C68.5666 20.0429 67.279 20.3311 65.8013 20.3311C64.3236 20.3311 63.036 20.0429 61.9385 19.4666C60.8409 18.8841 59.9887 18.0901 59.3816 17.0845C58.7808 16.0728 58.4803 14.9232 58.4803 13.6355V1.16416H60.7612V13.4516C60.7612 14.3713 60.9636 15.1899 61.3682 15.9073C61.7729 16.6185 62.3493 17.1795 63.0973 17.5903C63.8515 17.995 64.7528 18.1974 65.8013 18.1974C66.8498 18.1974 67.7511 17.995 68.5053 17.5903C69.2594 17.1795 69.8358 16.6185 70.2343 15.9073C70.639 15.1899 70.8413 14.3713 70.8413 13.4516V1.16416ZM76.6471 3.18754V1.16416H90.7739V3.18754H84.851V20H82.5701V3.18754H76.6471ZM116.735 7.05036H114.454C114.32 6.39429 114.083 5.81794 113.746 5.32129C113.415 4.82464 113.01 4.4077 112.532 4.07047C112.06 3.72711 111.536 3.46959 110.959 3.29791C110.383 3.12623 109.782 3.04039 109.157 3.04039C108.016 3.04039 106.983 3.32856 106.057 3.90492C105.138 4.48128 104.405 5.33049 103.859 6.45254C103.32 7.5746 103.05 8.95111 103.05 10.5821C103.05 12.213 103.32 13.5896 103.859 14.7116C104.405 15.8337 105.138 16.6829 106.057 17.2592C106.983 17.8356 108.016 18.1238 109.157 18.1238C109.782 18.1238 110.383 18.0379 110.959 17.8663C111.536 17.6946 112.06 17.4401 112.532 17.1029C113.01 16.7595 113.415 16.3395 113.746 15.8429C114.083 15.3401 114.32 14.7637 114.454 14.1138H116.735C116.564 15.0764 116.251 15.9379 115.797 16.6982C115.343 17.4585 114.779 18.1054 114.105 18.6388C113.43 19.1661 112.673 19.5677 111.833 19.8436C110.999 20.1196 110.107 20.2575 109.157 20.2575C107.55 20.2575 106.122 19.8651 104.871 19.0803C103.62 18.2955 102.636 17.1795 101.919 15.7325C101.201 14.2855 100.843 12.5687 100.843 10.5821C100.843 8.59549 101.201 6.87868 101.919 5.43165C102.636 3.98463 103.62 2.86871 104.871 2.08388C106.122 1.29905 107.55 0.906638 109.157 0.906638C110.107 0.906638 110.999 1.0446 111.833 1.32051C112.673 1.59643 113.43 2.0011 114.105 2.53454C114.779 3.06185 115.343 3.70565 115.797 4.46595C116.251 5.22012 116.564 6.08159 116.735 7.05036ZM136.314 10.5821C136.314 12.5687 135.955 14.2855 135.238 15.7325C134.52 17.1795 133.536 18.2955 132.285 19.0803C131.035 19.8651 129.606 20.2575 128 20.2575C126.393 20.2575 124.964 19.8651 123.714 19.0803C122.463 18.2955 121.479 17.1795 120.761 15.7325C120.044 14.2855 119.685 12.5687 119.685 10.5821C119.685 8.59549 120.044 6.87868 120.761 5.43165C121.479 3.98463 122.463 2.86871 123.714 2.08388C124.964 1.29905 126.393 0.906638 128 0.906638C129.606 0.906638 131.035 1.29905 132.285 2.08388C133.536 2.86871 134.52 3.98463 135.238 5.43165C135.955 6.87868 136.314 8.59549 136.314 10.5821ZM134.106 10.5821C134.106 8.95111 133.834 7.5746 133.288 6.45254C132.748 5.33049 132.016 4.48128 131.09 3.90492C130.17 3.32856 129.14 3.04039 128 3.04039C126.859 3.04039 125.826 3.32856 124.9 3.90492C123.98 4.48128 123.248 5.33049 122.702 6.45254C122.162 7.5746 121.893 8.95111 121.893 10.5821C121.893 12.213 122.162 13.5896 122.702 14.7116C123.248 15.8337 123.98 16.6829 124.9 17.2592C125.826 17.8356 126.859 18.1238 128 18.1238C129.14 18.1238 130.17 17.8356 131.09 17.2592C132.016 16.6829 132.748 15.8337 133.288 14.7116C133.834 13.5896 134.106 12.213 134.106 10.5821ZM140.149 20V1.16416H151.443V3.18754H142.43V9.55199H150.597V11.5754H142.43V20H140.149ZM155.35 20V1.16416H166.644V3.18754H157.631V9.55199H165.798V11.5754H157.631V20H155.35ZM170.55 20V1.16416H181.918V3.18754H172.831V9.55199H181.329V11.5754H172.831V17.9766H182.065V20H170.55ZM186.029 20V1.16416H197.397V3.18754H188.31V9.55199H196.808V11.5754H188.31V17.9766H197.544V20H186.029Z" fill="#CAA66B"/>
</svg>
