<?xml version="1.0" encoding="utf-8"?>
<!-- Generator: Adobe Illustrator 24.3.0, SVG Export Plug-In . SVG Version: 6.00 Build 0)  -->
<svg version="1.1" id="Layer_1" xmlns="http://www.w3.org/2000/svg" xmlns:xlink="http://www.w3.org/1999/xlink" x="0px" y="0px"
	 viewBox="0 0 21 21" style="enable-background:new 0 0 21 21;" xml:space="preserve">
<style type="text/css">
	.st0{fill:url(#SVGID_1_);}
	.st1{fill:#FFFFFF;}
</style>
<g>
	
		<linearGradient id="SVGID_1_" gradientUnits="userSpaceOnUse" x1="-211.5107" y1="519.4037" x2="-191.5107" y2="519.4037" gradientTransform="matrix(0.7071 -0.7071 0.7071 0.7071 -214.2843 -499.2635)">
		<stop  offset="0" style="stop-color:#FFDD55"/>
		<stop  offset="0.5" style="stop-color:#FF543E"/>
		<stop  offset="1" style="stop-color:#C837AB"/>
	</linearGradient>
	<circle class="st0" cx="10.5" cy="10.5" r="10"/>
	<g>
		<circle class="st1" cx="15.46" cy="5.42" r="1.04"/>
	</g>
	<path class="st1" d="M10.5,5.55C10.5,5.55,10.5,5.55,10.5,5.55c-2.74,0-4.96,2.22-4.96,4.96c0,2.74,2.22,4.95,4.96,4.95
		c2.74,0,4.95-2.22,4.95-4.95C15.46,7.77,13.24,5.55,10.5,5.55z M10.5,13.38c-1.59,0-2.88-1.29-2.89-2.88
		c0-1.59,1.29-2.88,2.88-2.89c0,0,0,0,0,0c1.59,0,2.88,1.29,2.88,2.89C13.38,12.09,12.09,13.38,10.5,13.38z"/>
</g>
</svg>
