<?xml version="1.0" encoding="utf-8"?>
<!-- Generator: Adobe Illustrator 24.3.0, SVG Export Plug-In . SVG Version: 6.00 Build 0)  -->
<svg version="1.1" id="Layer_1" xmlns="http://www.w3.org/2000/svg" xmlns:xlink="http://www.w3.org/1999/xlink" x="0px" y="0px"
	 viewBox="0 0 21 21" style="enable-background:new 0 0 21 21;" xml:space="preserve">
<style type="text/css">
	.st0{fill:#FAE300;}
	.st1{fill:#391B1B;}
</style>
<g>
	<circle class="st0" cx="10.5" cy="10.5" r="10"/>
	<path class="st1" d="M10.5,4.75c-3.57,0-6.46,2.29-6.46,5.11c0,1.84,1.23,3.45,3.07,4.35c-0.14,0.5-0.49,1.83-0.56,2.11
		c-0.09,0.35,0.13,0.35,0.27,0.25c0.11-0.07,1.77-1.2,2.49-1.69c0.39,0.06,0.79,0.09,1.2,0.09c3.57,0,6.46-2.29,6.46-5.11
		C16.96,7.04,14.07,4.75,10.5,4.75"/>
	<g>
		<path class="st0" d="M7.9,8.68H6.01C5.83,8.68,5.69,8.82,5.69,9c0,0.18,0.14,0.32,0.32,0.32h0.61v2.26c0,0.08,0.03,0.16,0.09,0.22
			c0.06,0.06,0.14,0.09,0.22,0.09h0.07c0.08,0,0.16-0.03,0.22-0.09c0.06-0.06,0.09-0.14,0.09-0.22V9.32H7.9
			c0.18,0,0.32-0.14,0.32-0.32C8.22,8.82,8.08,8.68,7.9,8.68z"/>
		<path class="st0" d="M12.44,11.29h-0.88V8.98c0-0.19-0.16-0.35-0.35-0.35c-0.19,0-0.35,0.16-0.35,0.35v2.49
			c0,0.02,0,0.04,0.01,0.06c0,0.02-0.01,0.04-0.01,0.06c0,0.16,0.13,0.29,0.29,0.29h1.28c0.16,0,0.29-0.13,0.29-0.29
			C12.73,11.42,12.6,11.29,12.44,11.29z"/>
		<path class="st0" d="M15.25,11.4l-0.98-1.29l0.88-0.89c0.12-0.12,0.12-0.31,0-0.43c-0.12-0.12-0.31-0.12-0.43,0l-1.1,1.1V8.98
			c0-0.19-0.16-0.35-0.35-0.35c-0.19,0-0.35,0.16-0.35,0.35v2.57c0,0.19,0.16,0.35,0.35,0.35c0.19,0,0.35-0.16,0.35-0.35v-0.79
			l0.2-0.2l0.93,1.22c0.1,0.14,0.3,0.17,0.44,0.06C15.32,11.73,15.35,11.54,15.25,11.4z"/>
		<path class="st0" d="M10.6,11.48L9.66,8.91c0,0,0,0,0,0C9.6,8.75,9.43,8.63,9.22,8.63c-0.23,0-0.42,0.14-0.46,0.32
			C8.75,8.97,8.75,8.98,8.74,9l-0.93,2.48c-0.06,0.16,0.03,0.34,0.19,0.4c0.16,0.06,0.34-0.03,0.4-0.19l0.16-0.46h1.29l0.16,0.46
			c0.06,0.16,0.24,0.25,0.4,0.19C10.58,11.82,10.66,11.65,10.6,11.48z M8.77,10.65L9.2,9.41c0,0,0.01,0,0.01,0l0.43,1.23H8.77z"/>
	</g>
</g>
</svg>
